<?xml version="1.0" encoding="utf-8"?>
<!-- Generator: Adobe Illustrator 21.0.0, SVG Export Plug-In . SVG Version: 6.00 Build 0)  -->
<svg version="1.1" id="Слой_1" xmlns="http://www.w3.org/2000/svg" xmlns:xlink="http://www.w3.org/1999/xlink" x="0px" y="0px"
	 viewBox="0 0 360.2 138.4" style="enable-background:new 0 0 360.2 138.4;" xml:space="preserve">
<style type="text/css">
	.st0{fill:#B63230;}
	.st1{fill:#61B7DB;}
	.st2{fill:#FFFFFF;}
	.st3{fill:#005DAC;}
</style>
<g>
	<path class="st0" d="M24.4,94.2c-2.1-4.1-3.8-8.7-5-13.4L6,90.5c1.3,2.7,2.4,4.2,2.4,4.2h16.2C24.6,94.6,24.5,94.5,24.4,94.2z"/>
	<path class="st0" d="M27.8,38.7C45.5,16.9,66.6,14,81.1,18.6L91.4,1c-6.5-1-55-7-79.9,29.6C-4.6,54.1-0.4,75.1,4.1,86.3l14.7-8
		C16.1,65.5,17.5,51.4,27.8,38.7z"/>
	<path class="st1" d="M95.4,28c2.4,3.1,5.4,7.2,8.7,11.9c-3.2-20.4-7.6-38.2-12-38.7c0,0-0.3-0.1-0.7-0.1L81.1,18.7
		C87.4,20.7,92.4,24.1,95.4,28z"/>
	<path d="M144.9,99.4c-4.5-5.7-25.9-38.5-40.8-59.6c-3.3-4.7-6.3-8.7-8.7-11.9c-3.1-3.9-8.1-7.3-14.3-9.3
		c-14.5-4.7-35.6-1.8-53.3,20.1C17.4,51.4,16,65.5,18.7,78.3l10.8-5.9c-1.4-2-2.2-4.3-2.2-6.9c0-6.4,5.2-11.7,11.7-11.7
		s11.7,5.3,11.7,11.7S45.5,77.2,39,77.2c-3.6,0-6.9-1.7-9.1-4.3l-10.7,7.8c1.2,4.8,3,9.2,5,13.4c0.1,0.2,0.2,0.4,0.3,0.6H65l-2.5,7
		l-6.9,19c0,0,66.7,0,77.1,0c6.3,0,13.2-3,14.4-9.2C148.1,107.1,147.2,102.4,144.9,99.4z"/>
	<path class="st2" d="M30.1,72.9c2.1,2.6,5.4,4.3,9.1,4.3c6.4,0,11.7-5.2,11.7-11.7s-5.2-11.7-11.7-11.7s-11.7,5.3-11.7,11.7
		c0,2.6,0.8,4.9,2.2,6.9l4.3-2.3L30.1,72.9z"/>
	<polygon class="st3" points="24.7,94.8 8.4,94.8 49.3,138.4 55.7,120.7 62.7,101.7 65.2,94.8 	"/>
</g>
<g>
	<path class="st2" d="M90.4,60.7v6.4H79.7v25.6h-7.5V67.1H61.6v-6.4H90.4z"/>
	<path class="st2" d="M101.4,86.2H117v6.4H93.9v-32h7.5V86.2z"/>
</g>
<g>
	<path class="st0" d="M259.2,88.4c0.8-2.6,3.2-6.1,8.8-6.1c4.8,0,8.3,2.3,8.3,7.2c0,2.8-1.9,4.8-4.1,6.9l-4.8,4.7h9v4.6h-16.9v-3.6
		l9.4-9.2c1.5-1.4,2.1-2.4,2.1-3.5c0-1.5-1-2.6-3-2.6c-2.5,0-3.5,1.8-4.1,3.1L259.2,88.4z"/>
	<path class="st0" d="M287,106.3c-6.9,0-10.1-5.4-10.1-12c0-6.7,3.2-12,10.1-12c6.9,0,10.1,5.4,10.1,12
		C297.1,100.9,293.9,106.3,287,106.3z M287,86.8c-3.4,0-4.8,2.9-4.8,7.5s1.4,7.5,4.8,7.5c3.4,0,4.8-2.9,4.8-7.5S290.3,86.8,287,86.8
		z"/>
	<path class="st0" d="M297.3,88.4c0.8-2.6,3.2-6.1,8.8-6.1c4.8,0,8.3,2.3,8.3,7.2c0,2.8-1.9,4.8-4.1,6.9l-4.8,4.7h9v4.6h-16.9v-3.6
		l9.4-9.2c1.5-1.4,2.1-2.4,2.1-3.5c0-1.5-1-2.6-3-2.6c-2.5,0-3.5,1.8-4.1,3.1L297.3,88.4z"/>
	<path class="st0" d="M314.6,89l6.9-6.1h4.2v22.8h-5.3V90.3l-2.5,2.2L314.6,89z"/>
</g>
<g>
	<path d="M189.2,35.4V41h-9.3v22.4h-6.5V41H164v-5.7H189.2z"/>
	<path d="M207.6,61.1c-2.1,1.7-5.1,3-9.6,3c-8.1,0-11.2-5.2-11.2-10.7c0-5.5,3.3-10.7,11.2-10.7c7.7,0,11.6,4.9,10.8,13h-15.3
		c0,1.7,1,3.6,4.5,3.6c3.2,0,5.2-1,6.4-1.8L207.6,61.1z M202.4,51.6c0-1.8-1-4.2-4.5-4.2c-3.5,0-4.5,2.4-4.5,4.2H202.4z"/>
	<path d="M224.2,50.3c0-1.8-0.4-2.9-3.6-2.9c-2.1,0-4.2,0.3-6.4,1.3l-2.1-4.1c2.8-1.4,6.4-1.9,9-1.9c7.6,0,9.6,2.8,9.6,8.3v12.4
		h-6.4v-2.6c-1.1,2.4-3.5,3.1-6.1,3.1c-4.1,0-7.7-2-7.7-6.7C210.4,51,217.5,49.7,224.2,50.3z M219.7,59c2.9,0,4.5-1.6,4.5-3.4v-1.7
		c-2.4-0.2-7.4-0.1-7.4,2.7C216.8,58,217.7,59,219.7,59z"/>
	<path d="M233.8,43.3h6.4v2.1c1.1-2.3,3.1-2.7,4.7-2.7c3,0,5.4,1.1,6.8,3.6c1.2-2.6,3.4-3.6,6-3.6c5.5,0,8.1,3.7,8.1,9.3v11.4h-6.4
		V52c0-2.4-0.8-4.4-3.2-4.4c-2.4,0-3.2,1.9-3.2,4.4v11.4h-6.4V52c0-2.4-0.8-4.4-3.2-4.4s-3.2,1.9-3.2,4.4v11.4h-6.4V43.3z"/>
	<path d="M275.5,57.8h13.7v5.7h-20.2V35.4h6.5V57.8z"/>
	<path d="M311.5,61.1c-2.1,1.7-5.1,3-9.6,3c-8.1,0-11.2-5.2-11.2-10.7c0-5.5,3.3-10.7,11.2-10.7c7.7,0,11.6,4.9,10.8,13h-15.3
		c0,1.7,1,3.6,4.5,3.6c3.2,0,5.2-1,6.4-1.8L311.5,61.1z M306.3,51.6c0-1.8-1-4.2-4.5-4.2c-3.5,0-4.5,2.4-4.5,4.2H306.3z"/>
	<path d="M328.1,50.3c0-1.8-0.4-2.9-3.6-2.9c-2.1,0-4.2,0.3-6.4,1.3l-2.1-4.1c2.8-1.4,6.4-1.9,9-1.9c7.6,0,9.6,2.8,9.6,8.3v12.4
		h-6.4v-2.6c-1.1,2.4-3.5,3.1-6.1,3.1c-4.1,0-7.7-2-7.7-6.7C314.3,51,321.4,49.7,328.1,50.3z M323.6,59c2.9,0,4.5-1.6,4.5-3.4v-1.7
		c-2.4-0.2-7.4-0.1-7.4,2.7C320.7,58,321.5,59,323.6,59z"/>
	<path d="M347.2,42.7c3.3,0,5.4,1.4,6.6,3.3V33.8h6.4v29.7h-6.4v-2.7c-1.2,1.8-3.4,3.3-6.6,3.3c-6,0-10.3-4-10.3-10.7
		C336.9,46.7,341.2,42.7,347.2,42.7z M348.5,59.1c3.4,0,5.3-2.4,5.3-5.7c0-3.3-1.9-5.7-5.3-5.7s-5.3,2.4-5.3,5.7
		C343.3,56.7,345.2,59.1,348.5,59.1z"/>
	<path d="M179,103.5c3.6,0,6.1-1.2,7.8-2.3l1.5,2.1c-2.1,1.6-5,2.7-9.3,2.7c-9,0-13.9-6.5-13.9-14.4c0-7.9,4.8-14.4,13.9-14.4
		c4.3,0,7.3,1.1,9.3,2.7l-1.5,2.1c-1.7-1.1-4.2-2.3-7.8-2.3c-7.3,0-10.9,5.4-10.9,11.9C168.1,98.1,171.7,103.5,179,103.5z"/>
	<path d="M211.1,95.8c0,5.9-4,10.2-10.3,10.2c-6.4,0-10.3-4.3-10.3-10.2s4-10.2,10.3-10.2C207.2,85.5,211.1,89.8,211.1,95.8z
		 M193.4,95.8c0,4.5,2.5,7.9,7.4,7.9c4.9,0,7.4-3.5,7.4-7.9c0-4.5-2.5-7.9-7.4-7.9C195.9,87.8,193.4,91.3,193.4,95.8z"/>
	<path d="M217.8,85.9v3.2c0.7-1.6,2.5-3.6,6-3.6c5.6,0,8.7,3.4,8.7,9.1v11h-2.8v-11c0-4-1.7-6.8-6-6.8c-4.2,0-6,2.8-6,6.8v11H215
		V85.9H217.8z"/>
	<path d="M248.7,85.9v2.3h-6v17.4H240V88.2h-4.1v-2.3h4.1v-1.3c0-6,1.5-9.1,6.3-9.1c1.5,0,3.1,0.3,3.9,0.7l-0.8,2.1
		c-0.5-0.2-1.6-0.5-2.8-0.5c-3,0-3.8,1.7-3.8,6.8v1.3H248.7z"/>
</g>
</svg>
